<svg xmlns="http://www.w3.org/2000/svg" version="1.1" xmlns:xlink="http://www.w3.org/1999/xlink" xmlns:svgjs="http://svgjs.com/svgjs" width="358" height="309"><svg id="SvgjsSvg1001" data-name="Calque 2" xmlns="http://www.w3.org/2000/svg" viewBox="0 0 358 309">
  <defs>
    <style>
      .cls-1 {
        fill: #7dc4e9;
        stroke: #cde9f8;
        stroke-width: 5px;
      }

      .cls-1, .cls-2, .cls-3 {
        stroke-miterlimit: 10;
      }

      .cls-4 {
        fill: none;
      }

      .cls-4, .cls-5, .cls-6, .cls-7 {
        stroke-width: 0px;
      }

      .cls-2 {
        stroke: #197240;
        stroke-width: 4px;
      }

      .cls-2, .cls-3, .cls-6 {
        fill: #bfdecd;
      }

      .cls-3 {
        stroke: #2e8b57;
        stroke-width: 6px;
      }

      .cls-5 {
        fill: #197240;
      }

      .cls-7 {
        fill: #005f9c;
      }
    </style>
  </defs>
  <g id="SvgjsG1000" data-name="FINAL LOGO OK BIG LIGHT">
    <g>
      <path class="cls-7" d="m243.09,116.53c-13.46,0-24.37,10.91-24.37,24.37s10.91,24.37,24.37,24.37,24.37-10.91,24.37-24.37-10.91-24.37-24.37-24.37Zm0,39.65c-8.44,0-15.28-6.84-15.28-15.28s6.84-15.28,15.28-15.28,15.28,6.84,15.28,15.28-6.84,15.28-15.28,15.28Z"></path>
      <path class="cls-1" d="m257.4,140.72c0,7.81-6.33,14.14-14.14,14.14s-14.14-6.33-14.14-14.14,6.33-14.14,14.14-14.14,14.14,6.33,14.14,14.14Z"></path>
      <path class="cls-7" d="m179.05,116.37c-13.46,0-24.37,10.91-24.37,24.37s10.91,24.37,24.37,24.37,24.37-10.91,24.37-24.37-10.91-24.37-24.37-24.37Zm0,39.65c-8.44,0-15.28-6.84-15.28-15.28s6.84-15.28,15.28-15.28,15.28,6.84,15.28,15.28-6.84,15.28-15.28,15.28Z"></path>
      <path class="cls-1" d="m193.36,140.55c0,7.81-6.33,14.14-14.14,14.14s-14.14-6.33-14.14-14.14,6.33-14.14,14.14-14.14,14.14,6.33,14.14,14.14Z"></path>
      <path class="cls-7" d="m114.62,116.68c-13.46,0-24.37,10.91-24.37,24.37s10.91,24.37,24.37,24.37,24.37-10.91,24.37-24.37-10.91-24.37-24.37-24.37Zm0,39.65c-8.44,0-15.28-6.84-15.28-15.28s6.84-15.28,15.28-15.28,15.28,6.84,15.28,15.28-6.84,15.28-15.28,15.28Z"></path>
      <path class="cls-1" d="m128.93,140.86c0,7.81-6.33,14.14-14.14,14.14s-14.14-6.33-14.14-14.14,6.33-14.14,14.14-14.14,14.14,6.33,14.14,14.14Z"></path>
      <path class="cls-7" d="m146.26,174.75c-13.46,0-24.37,10.91-24.37,24.37s10.91,24.37,24.37,24.37,24.37-10.91,24.37-24.37-10.91-24.37-24.37-24.37Zm0,39.65c-8.44,0-15.28-6.84-15.28-15.28s6.84-15.28,15.28-15.28,15.28,6.84,15.28,15.28-6.84,15.28-15.28,15.28Z"></path>
      <path class="cls-1" d="m160.56,198.93c0,7.81-6.33,14.14-14.14,14.14s-14.14-6.33-14.14-14.14,6.33-14.14,14.14-14.14,14.14,6.33,14.14,14.14Z"></path>
      <path class="cls-7" d="m212.44,174.99c-13.46,0-24.37,10.91-24.37,24.37s10.91,24.37,24.37,24.37,24.37-10.91,24.37-24.37-10.91-24.37-24.37-24.37Zm0,39.65c-8.44,0-15.28-6.84-15.28-15.28s6.84-15.28,15.28-15.28,15.28,6.84,15.28,15.28-6.84,15.28-15.28,15.28Z"></path>
      <path class="cls-1" d="m226.75,199.18c0,7.81-6.33,14.14-14.14,14.14s-14.14-6.33-14.14-14.14,6.33-14.14,14.14-14.14,14.14,6.33,14.14,14.14Z"></path>
      <path class="cls-7" d="m146.3,80.52c-8.41,0-15.22,6.81-15.22,15.22s6.81,15.22,15.22,15.22,15.22-6.81,15.22-15.22-6.81-15.22-15.22-15.22Zm0,24.77c-5.27,0-9.54-4.27-9.54-9.55s4.27-9.55,9.54-9.55,9.54,4.27,9.54,9.55-4.27,9.55-9.54,9.55Z"></path>
      <path class="cls-1" d="m154.99,95.62c0,4.74-3.85,8.59-8.59,8.59s-8.59-3.84-8.59-8.59,3.84-8.59,8.59-8.59,8.59,3.84,8.59,8.59Z"></path>
      <path class="cls-7" d="m209.04,80.32c-8.41,0-15.22,6.81-15.22,15.22s6.81,15.22,15.22,15.22,15.22-6.81,15.22-15.22-6.81-15.22-15.22-15.22Zm0,24.77c-5.27,0-9.54-4.27-9.54-9.55s4.27-9.55,9.54-9.55,9.54,4.27,9.54,9.55-4.27,9.55-9.54,9.55Z"></path>
      <path class="cls-1" d="m217.73,95.43c0,4.74-3.85,8.59-8.59,8.59s-8.59-3.84-8.59-8.59,3.84-8.59,8.59-8.59,8.59,3.84,8.59,8.59Z"></path>
      <path class="cls-2" d="m132.63,43.78c5.08-.48,8.22,2.54,11.11,3.64.75.28,1.51-.58,1.21-1.36l-2.06-4.24s9.8,3,10.46-3.95c1.1-11.55-19.48-6.03-19.48-6.03l-1.23,11.94Z"></path>
      <path class="cls-2" d="m224.02,43.55c-5.09-.36-8.16,2.73-11.02,3.89-.74.3-1.53-.55-1.24-1.33l1.96-4.28s-9.73,3.23-10.55-3.71c-1.37-11.52,19.34-6.48,19.34-6.48l1.51,11.91Z"></path>
      <path class="cls-2" d="m230.26,279.73s-23.2,10.4-24.01-1.17c-.49-6.96,9.67-5.61,9.67-5.61l-2.73-3.84c-.43-.71.19-1.69.97-1.54,3.03.61,6.62,3.07,11.55,1.76l4.54,10.39Z"></path>
      <path class="cls-2" d="m130.06,270.64c4.97,1.13,8.47-1.46,11.48-2.18.78-.19,1.43.77,1.02,1.5l-2.59,3.94s10.1-1.72,9.87,5.26c-.39,11.59-23.58,1.56-23.58,1.56l3.8-10.08Z"></path>
      <path class="cls-2" d="m326.39,184.97s9.26-19.19-2.28-20.27c-6.95-.65-5.83,9.54-5.83,9.54l-3.78-2.81c-.7-.45-1.7.15-1.56.93.54,3.04,2.92,6.69,1.5,11.59l11.96,1.02Z"></path>
      <path class="cls-2" d="m42.65,183.98c-1.54-4.86.76-8.57,1.23-11.62.12-.79-.89-1.36-1.58-.9l-3.71,2.9s.88-10.21-6.05-9.4c-11.52,1.34-1.81,20.32-1.81,20.32l11.93-1.3Z"></path>
      <path class="cls-2" d="m35.29,106.82c-.76,5.04,2.09,8.34,3.03,11.29.24.76-.66,1.48-1.42,1.13l-4.12-2.29s2.47,9.95-4.51,10.23c-11.59.47-4.96-19.78-4.96-19.78l11.99-.58Z"></path>
      <path class="cls-2" d="m333.26,107.73s6.47,22.42-5.09,21.48c-6.96-.57-4.09-10.41-4.09-10.41l-4.21,2.12c-.77.32-1.65-.44-1.37-1.19,1.06-2.9,4.04-6.09,3.48-11.15l11.27-.85Z"></path>
      <path class="cls-3" d="m96.26,244.73c9.23,6.49,20.41,13.39,33,18,2.62.96,2.24,4.17,1.32,6.81l-3.59,10.26c-.96,2.73-3.99,4.15-6.69,3.1-61.26-23.83-84.57-73.07-91.01-90.16-1.18-3.14.7-6.6,3.98-7.33l7.15-1.59c2.76-.61,7.74-.67,8.84,1.92,2.72,6.41,9,18,19,32"></path>
      <path class="cls-3" d="m260.26,244.73c-9.15,6.43-21,12-33,17-2.76,1.15-2.06,5.33-1.07,8.15l3.34,9.54c1.03,2.93,4.28,4.45,7.17,3.32,60.47-23.67,83.82-72.13,90.49-89.58,1.29-3.37-.71-7.09-4.23-7.87l-6.43-1.43c-2.93-.65-7.09-.9-8.27,1.86-2.78,6.49-9,18-20,32"></path>
      <path class="cls-3" d="m57.98,69.78c-1.77,2.68-3.33,5.39-4.72,7.94-3.77,6.91-7.14,16.49-11.34,28.32-.94,2.66-3.74,4.18-6.48,3.53l-10.52-2.51c-3.09-.74-4.94-3.92-4.01-6.96,4.65-15.14,10.63-29.84,15.35-39.39,6.66-13.48,13.57-32.37,45-33,13.55-.27,28.93-.23,46.53-.06,3.03.03,5.47,2.49,5.47,5.52v11.02c0,3.05-2.47,5.52-5.52,5.52-14.06-.01-27.71-.03-37.05.54"></path>
      <path class="cls-3" d="m298.96,69.78c1.77,2.68,3.33,5.39,4.72,7.94,3.77,6.91,7.14,16.49,11.34,28.32.94,2.66,3.74,4.18,6.48,3.53l10.52-2.51c3.09-.74,4.94-3.92,4.01-6.96-4.65-15.14-10.63-29.84-15.35-39.39-6.66-13.48-13.57-32.37-45-33-13.55-.27-28.93-.23-46.53-.06-3.03.03-5.47,2.49-5.47,5.52v11.02c0,3.05,2.47,5.52,5.52,5.52,14.06-.01,27.71-.03,37.05.54"></path>
      <g>
        <circle class="cls-6" cx="69.53" cy="51.66" r="22"></circle>
        <path class="cls-5" d="m69.53,32.66c10.48,0,19,8.52,19,19s-8.52,19-19,19-19-8.52-19-19,8.52-19,19-19m0-6c-13.81,0-25,11.19-25,25s11.19,25,25,25,25-11.19,25-25-11.19-25-25-25h0Z"></path>
      </g>
      <g>
        <path class="cls-6" d="m276.92,253.58c-10.81,0-19.61-8.71-19.61-19.42s8.8-19.42,19.61-19.42,19.61,8.71,19.61,19.42-8.8,19.42-19.61,19.42Z"></path>
        <path class="cls-5" d="m276.92,217.74c9.16,0,16.61,7.37,16.61,16.42s-7.45,16.42-16.61,16.42-16.61-7.37-16.61-16.42,7.45-16.42,16.61-16.42m0-6c-12.49,0-22.61,10.04-22.61,22.42s10.12,22.42,22.61,22.42,22.61-10.04,22.61-22.42-10.12-22.42-22.61-22.42h0Z"></path>
      </g>
      <g>
        <path class="cls-6" d="m80.04,253.75c-10.81,0-19.61-8.71-19.61-19.42s8.8-19.42,19.61-19.42,19.61,8.71,19.61,19.42-8.8,19.42-19.61,19.42Z"></path>
        <path class="cls-5" d="m80.04,217.91c9.16,0,16.61,7.37,16.61,16.42s-7.45,16.42-16.61,16.42-16.61-7.37-16.61-16.42,7.45-16.42,16.61-16.42m0-6c-12.49,0-22.61,10.04-22.61,22.42s10.12,22.42,22.61,22.42,22.61-10.04,22.61-22.42-10.12-22.42-22.61-22.42h0Z"></path>
      </g>
      <g>
        <circle class="cls-6" cx="287.53" cy="51.66" r="22"></circle>
        <path class="cls-5" d="m287.53,32.66c10.48,0,19,8.52,19,19s-8.52,19-19,19-19-8.52-19-19,8.52-19,19-19m0-6c-13.81,0-25,11.19-25,25s11.19,25,25,25,25-11.19,25-25-11.19-25-25-25h0Z"></path>
      </g>
    </g>
    <rect class="cls-4" width="358" height="309"></rect>
  </g>
</svg><style>@media (prefers-color-scheme: light) { :root { filter: contrast(1) brightness(0.8); } }
@media (prefers-color-scheme: dark) { :root { filter: contrast(0.8333333333333334) brightness(1.7); } }
</style></svg>