<?xml version="1.0" encoding="UTF-8"?>
<svg id="Calque_2" data-name="Calque 2" xmlns="http://www.w3.org/2000/svg" viewBox="0 0 111.99 91.15">
  <defs>
    <style>
      .cls-1, .cls-2 {
        stroke-width: 2px;
      }

      .cls-1, .cls-2, .cls-3, .cls-4 {
        stroke-miterlimit: 10;
      }

      .cls-1, .cls-3 {
        fill: #7dc4e9;
        stroke: #cde9f8;
      }

      .cls-2 {
        stroke: #2e8b57;
      }

      .cls-2, .cls-4, .cls-5 {
        fill: #bfdecd;
      }

      .cls-4 {
        stroke: #197240;
      }

      .cls-6 {
        fill: #197240;
      }

      .cls-6, .cls-5, .cls-7 {
        stroke-width: 0px;
      }

      .cls-7 {
        fill: #005f9c;
      }
    </style>
  </defs>
  <g id="FINAL_LOGO_OK_SMALL_LIGHT" data-name="FINAL LOGO OK SMALL LIGHT">
    <g>
      <path class="cls-7" d="m78.52,32.02c-4.69,0-8.49,3.8-8.49,8.49s3.8,8.49,8.49,8.49,8.49-3.8,8.49-8.49-3.8-8.49-8.49-8.49Zm0,13.82c-2.94,0-5.33-2.38-5.33-5.33s2.38-5.33,5.33-5.33,5.33,2.38,5.33,5.33-2.38,5.33-5.33,5.33Z"/>
      <path class="cls-1" d="m83.51,40.45c0,2.72-2.21,4.93-4.93,4.93s-4.93-2.21-4.93-4.93,2.21-4.93,4.93-4.93,4.93,2.21,4.93,4.93Z"/>
      <path class="cls-7" d="m56.2,31.96c-4.69,0-8.49,3.8-8.49,8.49s3.8,8.49,8.49,8.49,8.49-3.8,8.49-8.49-3.8-8.49-8.49-8.49Zm0,13.82c-2.94,0-5.33-2.38-5.33-5.33s2.38-5.33,5.33-5.33,5.33,2.38,5.33,5.33-2.38,5.33-5.33,5.33Z"/>
      <path class="cls-1" d="m61.19,40.39c0,2.72-2.21,4.93-4.93,4.93s-4.93-2.21-4.93-4.93,2.21-4.93,4.93-4.93,4.93,2.21,4.93,4.93Z"/>
      <path class="cls-7" d="m33.74,32.07c-4.69,0-8.49,3.8-8.49,8.49s3.8,8.49,8.49,8.49,8.49-3.8,8.49-8.49-3.8-8.49-8.49-8.49Zm0,13.82c-2.94,0-5.33-2.38-5.33-5.33s2.38-5.33,5.33-5.33,5.33,2.38,5.33,5.33-2.38,5.33-5.33,5.33Z"/>
      <path class="cls-1" d="m38.73,40.5c0,2.72-2.21,4.93-4.93,4.93s-4.93-2.21-4.93-4.93,2.21-4.93,4.93-4.93,4.93,2.21,4.93,4.93Z"/>
      <path class="cls-7" d="m44.77,52.31c-4.69,0-8.49,3.8-8.49,8.49s3.8,8.49,8.49,8.49,8.49-3.8,8.49-8.49-3.8-8.49-8.49-8.49Zm0,13.82c-2.94,0-5.33-2.38-5.33-5.33s2.38-5.33,5.33-5.33,5.33,2.38,5.33,5.33-2.38,5.33-5.33,5.33Z"/>
      <path class="cls-1" d="m49.76,60.74c0,2.72-2.21,4.93-4.93,4.93s-4.93-2.21-4.93-4.93,2.21-4.93,4.93-4.93,4.93,2.21,4.93,4.93Z"/>
      <path class="cls-7" d="m67.84,52.4c-4.69,0-8.49,3.8-8.49,8.49s3.8,8.49,8.49,8.49,8.49-3.8,8.49-8.49-3.8-8.49-8.49-8.49Zm0,13.82c-2.94,0-5.33-2.38-5.33-5.33s2.38-5.33,5.33-5.33,5.33,2.38,5.33,5.33-2.38,5.33-5.33,5.33Z"/>
      <path class="cls-1" d="m72.83,60.82c0,2.72-2.21,4.93-4.93,4.93s-4.93-2.21-4.93-4.93,2.21-4.93,4.93-4.93,4.93,2.21,4.93,4.93Z"/>
      <path class="cls-7" d="m44.79,19.47c-2.93,0-5.3,2.38-5.3,5.3s2.38,5.3,5.3,5.3,5.3-2.38,5.3-5.3-2.38-5.3-5.3-5.3Zm0,8.63c-1.84,0-3.33-1.49-3.33-3.33s1.49-3.33,3.33-3.33,3.33,1.49,3.33,3.33-1.49,3.33-3.33,3.33Z"/>
      <path class="cls-3" d="m47.81,24.73c0,1.65-1.34,2.99-2.99,2.99s-2.99-1.34-2.99-2.99,1.34-2.99,2.99-2.99,2.99,1.34,2.99,2.99Z"/>
      <path class="cls-7" d="m66.65,19.4c-2.93,0-5.3,2.38-5.3,5.3s2.38,5.3,5.3,5.3,5.3-2.38,5.3-5.3-2.38-5.3-5.3-5.3Zm0,8.63c-1.84,0-3.33-1.49-3.33-3.33s1.49-3.33,3.33-3.33,3.33,1.49,3.33,3.33-1.49,3.33-3.33,3.33Z"/>
      <path class="cls-3" d="m69.68,24.67c0,1.65-1.34,2.99-2.99,2.99s-2.99-1.34-2.99-2.99,1.34-2.99,2.99-2.99,2.99,1.34,2.99,2.99Z"/>
      <path class="cls-4" d="m40.02,6.66c1.77-.17,2.86.88,3.87,1.27.26.1.53-.2.42-.47l-.72-1.48s3.41,1.05,3.65-1.38c.38-4.02-6.79-2.1-6.79-2.1l-.43,4.16Z"/>
      <path class="cls-4" d="m71.87,6.58c-1.77-.13-2.84.95-3.84,1.36-.26.1-.53-.19-.43-.46l.68-1.49s-3.39,1.12-3.68-1.29c-.48-4.01,6.74-2.26,6.74-2.26l.52,4.15Z"/>
      <path class="cls-4" d="m74.05,88.9s-8.09,3.63-8.37-.41c-.17-2.43,3.37-1.96,3.37-1.96l-.95-1.34c-.15-.25.06-.59.34-.54,1.06.21,2.31,1.07,4.03.62l1.58,3.62Z"/>
      <path class="cls-4" d="m39.12,85.73c1.73.39,2.95-.51,4-.76.27-.06.5.27.36.52l-.9,1.37s3.52-.6,3.44,1.83c-.14,4.04-8.22.54-8.22.54l1.32-3.51Z"/>
      <path class="cls-4" d="m107.55,55.87s3.23-6.69-.8-7.06c-2.42-.23-2.03,3.32-2.03,3.32l-1.32-.98c-.25-.16-.59.05-.54.33.19,1.06,1.02,2.33.52,4.04l4.17.36Z"/>
      <path class="cls-4" d="m8.66,55.53c-.54-1.69.26-2.99.43-4.05.04-.27-.31-.47-.55-.31l-1.29,1.01s.31-3.56-2.11-3.28c-4.02.47-.63,7.08-.63,7.08l4.16-.45Z"/>
      <path class="cls-4" d="m6.1,28.63c-.26,1.76.73,2.91,1.06,3.93.08.26-.23.52-.49.39l-1.44-.8s.86,3.47-1.57,3.57c-4.04.16-1.73-6.89-1.73-6.89l4.18-.2Z"/>
      <path class="cls-4" d="m109.95,28.95s2.26,7.82-1.77,7.49c-2.43-.2-1.43-3.63-1.43-3.63l-1.47.74c-.27.11-.57-.15-.48-.41.37-1.01,1.41-2.12,1.21-3.89l3.93-.3Z"/>
      <path class="cls-2" d="m27.34,76.7c3.22,2.26,7.11,4.67,11.5,6.27.91.33.78,1.45.46,2.37l-1.25,3.57c-.33.95-1.39,1.44-2.33,1.08-21.35-8.3-29.48-25.47-31.72-31.42-.41-1.1.24-2.3,1.39-2.55l2.49-.55c.96-.21,2.7-.24,3.08.67.95,2.24,3.14,6.27,6.62,11.15"/>
      <path class="cls-2" d="m84.5,76.7c-3.19,2.24-7.32,4.18-11.5,5.93-.96.4-.72,1.86-.37,2.84l1.16,3.33c.36,1.02,1.49,1.55,2.5,1.16,21.08-8.25,29.22-25.14,31.54-31.22.45-1.17-.25-2.47-1.48-2.74l-2.24-.5c-1.02-.23-2.47-.32-2.88.65-.97,2.26-3.14,6.27-6.97,11.15"/>
      <path class="cls-2" d="m14,15.73c-.62.94-1.16,1.88-1.64,2.77-1.31,2.41-2.49,5.75-3.95,9.87-.33.93-1.3,1.46-2.26,1.23l-3.67-.87c-1.08-.26-1.72-1.37-1.4-2.43,1.62-5.28,3.7-10.4,5.35-13.73C8.75,7.87,11.16,1.29,22.12,1.07c4.72-.1,10.08-.08,16.22-.02,1.05.01,1.91.87,1.91,1.92v3.84c0,1.06-.86,1.92-1.93,1.92-4.9,0-9.66-.01-12.91.19"/>
      <path class="cls-2" d="m97.99,15.73c.62.94,1.16,1.88,1.64,2.77,1.31,2.41,2.49,5.75,3.95,9.87.33.93,1.3,1.46,2.26,1.23l3.67-.87c1.08-.26,1.72-1.37,1.4-2.43-1.62-5.28-3.7-10.4-5.35-13.73-2.32-4.7-4.73-11.28-15.68-11.5-4.72-.1-10.08-.08-16.22-.02-1.05.01-1.91.87-1.91,1.92v3.84c0,1.06.86,1.92,1.93,1.92,4.9,0,9.66-.01,12.91.19"/>
      <g>
        <path class="cls-5" d="m18.03,17.12c-4.25,0-7.71-3.46-7.71-7.71s3.46-7.71,7.71-7.71,7.71,3.46,7.71,7.71-3.46,7.71-7.71,7.71Z"/>
        <path class="cls-6" d="m18.03,2.7c3.7,0,6.71,3.01,6.71,6.71s-3.01,6.71-6.71,6.71-6.71-3.01-6.71-6.71,3.01-6.71,6.71-6.71m0-2c-4.81,0-8.71,3.9-8.71,8.71s3.9,8.71,8.71,8.71,8.71-3.9,8.71-8.71S22.84.7,18.03.7h0Z"/>
      </g>
      <g>
        <path class="cls-5" d="m90.31,79.83c-3.79,0-6.88-3.06-6.88-6.81s3.09-6.81,6.88-6.81,6.88,3.06,6.88,6.81-3.09,6.81-6.88,6.81Z"/>
        <path class="cls-6" d="m90.31,67.2c3.24,0,5.88,2.61,5.88,5.81s-2.64,5.81-5.88,5.81-5.88-2.61-5.88-5.81,2.64-5.81,5.88-5.81m0-2c-4.35,0-7.88,3.5-7.88,7.81s3.53,7.81,7.88,7.81,7.88-3.5,7.88-7.81-3.53-7.81-7.88-7.81h0Z"/>
      </g>
      <g>
        <path class="cls-5" d="m21.69,79.89c-3.79,0-6.88-3.06-6.88-6.81s3.09-6.81,6.88-6.81,6.88,3.06,6.88,6.81-3.09,6.81-6.88,6.81Z"/>
        <path class="cls-6" d="m21.69,67.26c3.24,0,5.88,2.61,5.88,5.81s-2.64,5.81-5.88,5.81-5.88-2.61-5.88-5.81,2.64-5.81,5.88-5.81m0-2c-4.35,0-7.88,3.5-7.88,7.81s3.53,7.81,7.88,7.81,7.88-3.5,7.88-7.81-3.53-7.81-7.88-7.81h0Z"/>
      </g>
      <g>
        <path class="cls-5" d="m94.01,17.12c-4.25,0-7.71-3.46-7.71-7.71s3.46-7.71,7.71-7.71,7.71,3.46,7.71,7.71-3.46,7.71-7.71,7.71Z"/>
        <path class="cls-6" d="m94.01,2.7c3.7,0,6.71,3.01,6.71,6.71s-3.01,6.71-6.71,6.71-6.71-3.01-6.71-6.71,3.01-6.71,6.71-6.71m0-2c-4.81,0-8.71,3.9-8.71,8.71s3.9,8.71,8.71,8.71,8.71-3.9,8.71-8.71-3.9-8.71-8.71-8.71h0Z"/>
      </g>
    </g>
  </g>
</svg>