<?xml version="1.0" encoding="UTF-8"?>
<svg id="Calque_2" data-name="Calque 2" xmlns="http://www.w3.org/2000/svg" viewBox="0 0 799.37 799.37">
  <defs>
    <style>
      .cls-1 {
        stroke-width: 5px;
      }

      .cls-1, .cls-2, .cls-3, .cls-4 {
        stroke-miterlimit: 10;
      }

      .cls-1, .cls-4 {
        fill: #005f9c;
        stroke: #005f9c;
      }

      .cls-5 {
        fill: none;
      }

      .cls-5, .cls-6 {
        stroke-width: 0px;
      }

      .cls-2 {
        stroke-width: 10px;
      }

      .cls-2, .cls-3 {
        stroke: #197240;
      }

      .cls-2, .cls-3, .cls-6 {
        fill: #197240;
      }

      .cls-3 {
        stroke-width: 8px;
      }
    </style>
  </defs>
  <g id="Calque_79" data-name="Calque 79">
    <rect class="cls-5" width="799.37" height="799.37"/>
    <g>
      <path class="cls-4" d="m559.47,302.81c-33.27,0-60.25,26.97-60.25,60.25s26.97,60.25,60.25,60.25,60.25-26.97,60.25-60.25-26.97-60.25-60.25-60.25Zm0,98.03c-20.87,0-37.78-16.92-37.78-37.78s16.92-37.78,37.78-37.78,37.78,16.92,37.78,37.78-16.92,37.78-37.78,37.78Z"/>
      <path class="cls-1" d="m594.85,362.61c0,19.31-15.66,34.96-34.97,34.96s-34.96-15.65-34.96-34.96,15.65-34.97,34.96-34.97,34.97,15.65,34.97,34.97Z"/>
      <path class="cls-4" d="m401.12,302.41c-33.27,0-60.25,26.97-60.25,60.25s26.97,60.25,60.25,60.25,60.25-26.97,60.25-60.25-26.97-60.25-60.25-60.25Zm0,98.03c-20.87,0-37.78-16.92-37.78-37.78s16.92-37.78,37.78-37.78,37.78,16.92,37.78,37.78-16.92,37.78-37.78,37.78Z"/>
      <path class="cls-1" d="m436.5,362.21c0,19.31-15.66,34.96-34.97,34.96s-34.96-15.65-34.96-34.96,15.65-34.97,34.96-34.97,34.97,15.65,34.97,34.97Z"/>
      <path class="cls-4" d="m241.83,303.18c-33.27,0-60.25,26.97-60.25,60.25s26.97,60.25,60.25,60.25,60.25-26.97,60.25-60.25-26.97-60.25-60.25-60.25Zm0,98.03c-20.87,0-37.78-16.92-37.78-37.78s16.92-37.78,37.78-37.78,37.78,16.92,37.78,37.78-16.92,37.78-37.78,37.78Z"/>
      <path class="cls-1" d="m277.21,362.98c0,19.31-15.66,34.96-34.97,34.96s-34.96-15.65-34.96-34.96,15.65-34.97,34.96-34.97,34.97,15.65,34.97,34.97Z"/>
      <path class="cls-4" d="m320.05,446.76c-33.27,0-60.25,26.97-60.25,60.25s26.97,60.25,60.25,60.25,60.25-26.97,60.25-60.25-26.97-60.25-60.25-60.25Zm0,98.03c-20.87,0-37.78-16.92-37.78-37.78s16.92-37.78,37.78-37.78,37.78,16.92,37.78,37.78-16.92,37.78-37.78,37.78Z"/>
      <path class="cls-1" d="m355.42,506.56c0,19.31-15.66,34.96-34.97,34.96s-34.96-15.65-34.96-34.96,15.65-34.97,34.96-34.97,34.97,15.65,34.97,34.97Z"/>
      <path class="cls-4" d="m483.69,447.37c-33.27,0-60.25,26.97-60.25,60.25s26.97,60.25,60.25,60.25,60.25-26.97,60.25-60.25-26.97-60.25-60.25-60.25Zm0,98.03c-20.87,0-37.78-16.92-37.78-37.78s16.92-37.78,37.78-37.78,37.78,16.92,37.78,37.78-16.92,37.78-37.78,37.78Z"/>
      <path class="cls-1" d="m519.07,507.16c0,19.31-15.66,34.96-34.97,34.96s-34.96-15.65-34.96-34.96,15.65-34.97,34.96-34.97,34.97,15.65,34.97,34.97Z"/>
      <path class="cls-4" d="m320.16,213.77c-20.78,0-37.63,16.85-37.63,37.63s16.85,37.63,37.63,37.63,37.63-16.85,37.63-37.63-16.85-37.63-37.63-37.63Zm0,61.23c-13.03,0-23.6-10.57-23.6-23.6s10.57-23.6,23.6-23.6,23.6,10.57,23.6,23.6-10.57,23.6-23.6,23.6Z"/>
      <path class="cls-1" d="m341.65,251.13c0,11.73-9.51,21.23-21.24,21.23s-21.23-9.51-21.23-21.23,9.51-21.24,21.23-21.24,21.24,9.51,21.24,21.24Z"/>
      <path class="cls-4" d="m475.28,213.3c-20.78,0-37.63,16.85-37.63,37.63s16.85,37.63,37.63,37.63,37.63-16.85,37.63-37.63-16.85-37.63-37.63-37.63Zm0,61.23c-13.03,0-23.6-10.57-23.6-23.6s10.57-23.6,23.6-23.6,23.6,10.57,23.6,23.6-10.57,23.6-23.6,23.6Z"/>
      <path class="cls-1" d="m496.77,250.65c0,11.73-9.51,21.23-21.24,21.23s-21.23-9.51-21.23-21.23,9.51-21.24,21.23-21.24,21.24,9.51,21.24,21.24Z"/>
      <path class="cls-3" d="m286.36,122.93c12.55-1.19,20.32,6.27,27.46,8.99,1.84.7,3.75-1.44,2.98-3.35l-5.09-10.48s24.22,7.42,25.86-9.76c2.72-28.55-48.17-14.91-48.17-14.91l-3.04,29.51Z"/>
      <path class="cls-3" d="m512.31,122.38c-12.58-.9-20.17,6.74-27.24,9.62-1.83.74-3.78-1.35-3.06-3.28l4.85-10.59s-24.05,7.98-26.08-9.16c-3.38-28.48,47.82-16.02,47.82-16.02l3.72,29.44Z"/>
      <path class="cls-3" d="m527.75,706.32s-57.36,25.72-59.36-2.88c-1.2-17.22,23.91-13.87,23.91-13.87l-6.74-9.5c-1.06-1.77.46-4.19,2.39-3.8,7.49,1.51,16.38,7.6,28.56,4.36l11.23,25.69Z"/>
      <path class="cls-3" d="m279.99,683.87c12.29,2.79,20.95-3.61,28.39-5.39,1.92-.46,3.53,1.91,2.53,3.71l-6.39,9.74s24.98-4.25,24.39,13c-.97,28.66-58.3,3.86-58.3,3.86l9.39-24.93Z"/>
      <path class="cls-3" d="m765.43,472.02s22.9-47.45-5.65-50.11c-17.19-1.6-14.42,23.58-14.42,23.58l-9.34-6.96c-1.74-1.11-4.2.36-3.85,2.31,1.34,7.53,7.22,16.55,3.7,28.66l29.56,2.52Z"/>
      <path class="cls-3" d="m63.88,469.59c-3.8-12.02,1.87-21.18,3.03-28.73.3-1.95-2.19-3.36-3.9-2.22l-9.18,7.17s2.18-25.24-14.97-23.24c-28.48,3.32-4.48,50.23-4.48,50.23l29.5-3.21Z"/>
      <path class="cls-3" d="m45.69,278.8c-1.87,12.47,5.16,20.63,7.49,27.91.6,1.88-1.64,3.66-3.51,2.8l-10.19-5.65s6.1,24.59-11.15,25.3c-28.65,1.17-12.27-48.91-12.27-48.91l29.64-1.44Z"/>
      <path class="cls-3" d="m782.41,281.05s16.01,55.45-12.57,53.11c-17.2-1.4-10.11-25.73-10.11-25.73l-10.41,5.23c-1.91.79-4.07-1.09-3.39-2.94,2.62-7.18,9.98-15.05,8.62-27.58l27.87-2.1Z"/>
      <path class="cls-2" d="m196.43,619.78c22.83,16.05,50.45,33.11,81.59,44.51,6.48,2.37,5.54,10.32,3.26,16.83l-8.87,25.36c-2.36,6.75-9.87,10.25-16.54,7.66-151.47-58.91-209.1-180.68-225.03-222.93-2.93-7.77,1.74-16.32,9.84-18.12l17.68-3.93c6.81-1.51,19.13-1.67,21.86,4.76,6.73,15.86,22.25,44.51,46.98,79.12"/>
      <path class="cls-2" d="m601.92,619.78c-22.62,15.9-51.92,29.67-81.59,42.03-6.83,2.85-5.09,13.18-2.64,20.16l8.26,23.6c2.54,7.24,10.59,11.01,17.73,8.21,149.51-58.53,207.26-178.33,223.73-221.48,3.18-8.33-1.76-17.53-10.46-19.46l-15.89-3.53c-7.25-1.61-17.53-2.23-20.45,4.59-6.86,16.05-22.25,44.51-49.45,79.12"/>
      <path class="cls-2" d="m101.77,187.23c-4.39,6.64-8.22,13.34-11.66,19.64-9.32,17.09-17.65,40.78-28.03,70.03-2.33,6.57-9.24,10.34-16.03,8.72l-26.01-6.19c-7.64-1.82-12.21-9.7-9.91-17.21,11.49-37.44,26.28-73.78,37.94-97.39,16.47-33.33,33.56-80.02,111.26-81.59,33.49-.68,71.53-.57,115.04-.14,7.48.07,13.53,6.16,13.53,13.65v27.24c0,7.54-6.12,13.65-13.66,13.65-34.76-.03-68.52-.08-91.61,1.34"/>
      <path class="cls-2" d="m697.6,187.23c4.39,6.64,8.22,13.34,11.66,19.64,9.32,17.09,17.65,40.78,28.03,70.03,2.33,6.57,9.24,10.34,16.03,8.72l26.01-6.19c7.64-1.82,12.21-9.7,9.91-17.21-11.49-37.44-26.28-73.78-37.94-97.39-16.47-33.33-33.56-80.02-111.26-81.59-33.49-.68-71.53-.57-115.04-.14-7.48.07-13.53,6.16-13.53,13.65v27.24c0,7.54,6.12,13.65,13.66,13.65,34.76-.03,68.52-.08,91.61,1.34"/>
      <g>
        <circle class="cls-6" cx="130.35" cy="142.43" r="56.81"/>
        <path class="cls-6" d="m130.35,90.62c28.57,0,51.81,23.24,51.81,51.81s-23.24,51.81-51.81,51.81-51.81-23.24-51.81-51.81,23.24-51.81,51.81-51.81m0-10c-34.14,0-61.81,27.67-61.81,61.81s27.67,61.81,61.81,61.81,61.81-27.67,61.81-61.81-27.67-61.81-61.81-61.81h0Z"/>
      </g>
      <g>
        <path class="cls-6" d="m643.12,644.1c-28.07,0-50.9-22.62-50.9-50.43s22.83-50.43,50.9-50.43,50.9,22.62,50.9,50.43-22.84,50.43-50.9,50.43Z"/>
        <path class="cls-6" d="m643.12,548.23c25.31,0,45.9,20.38,45.9,45.43s-20.59,45.43-45.9,45.43-45.9-20.38-45.9-45.43,20.59-45.43,45.9-45.43m0-10c-30.88,0-55.9,24.82-55.9,55.43s25.03,55.43,55.9,55.43,55.9-24.82,55.9-55.43-25.03-55.43-55.9-55.43h0Z"/>
      </g>
      <g>
        <ellipse class="cls-6" cx="156.33" cy="594.08" rx="50.9" ry="50.43"/>
        <path class="cls-6" d="m156.33,548.64c25.31,0,45.9,20.38,45.9,45.43s-20.59,45.43-45.9,45.43-45.9-20.38-45.9-45.43,20.59-45.43,45.9-45.43m0-10c-30.87,0-55.9,24.82-55.9,55.43s25.03,55.43,55.9,55.43,55.9-24.82,55.9-55.43-25.03-55.43-55.9-55.43h0Z"/>
      </g>
      <circle class="cls-2" cx="669.36" cy="142.43" r="61.81"/>
    </g>
  </g>
</svg>