<?xml version="1.0" encoding="UTF-8"?>
<svg id="Calque_2" data-name="Calque 2" xmlns="http://www.w3.org/2000/svg" viewBox="0 0 799.37 799.37">
  <defs>
    <style>
      .cls-1 {
        fill: #7dc4e9;
        stroke: #cde9f8;
        stroke-width: 5px;
      }

      .cls-1, .cls-2, .cls-3 {
        stroke-miterlimit: 10;
      }

      .cls-2 {
        stroke: #2e8b57;
        stroke-width: 10px;
      }

      .cls-2, .cls-3, .cls-4 {
        fill: #bfdecd;
      }

      .cls-3 {
        stroke: #197240;
        stroke-width: 8px;
      }

      .cls-5 {
        fill: #197240;
      }

      .cls-5, .cls-4, .cls-6, .cls-7 {
        stroke-width: 0px;
      }

      .cls-6 {
        fill: #fff;
      }

      .cls-7 {
        fill: #005f9c;
      }
    </style>
  </defs>
  <g id="Calque_77" data-name="Calque 77">
    <g id="Calque_78" data-name="Calque 78">
      <rect class="cls-6" width="799.37" height="799.37" rx="125.83" ry="125.83"/>
    </g>
    <g>
      <path class="cls-7" d="m552.87,314.82c-31.9,0-57.76,25.86-57.76,57.76s25.86,57.76,57.76,57.76,57.76-25.86,57.76-57.76-25.86-57.76-57.76-57.76Zm0,93.98c-20,0-36.22-16.22-36.22-36.22s16.22-36.22,36.22-36.22,36.22,16.22,36.22,36.22-16.22,36.22-36.22,36.22Z"/>
      <path class="cls-1" d="m586.79,372.15c0,18.51-15.02,33.52-33.53,33.52s-33.52-15.01-33.52-33.52,15.01-33.53,33.52-33.53,33.53,15.01,33.53,33.53Z"/>
      <path class="cls-7" d="m401.07,314.43c-31.9,0-57.76,25.86-57.76,57.76s25.86,57.76,57.76,57.76,57.76-25.86,57.76-57.76-25.86-57.76-57.76-57.76Zm0,93.98c-20,0-36.22-16.22-36.22-36.22s16.22-36.22,36.22-36.22,36.22,16.22,36.22,36.22-16.22,36.22-36.22,36.22Z"/>
      <path class="cls-1" d="m434.98,371.76c0,18.51-15.02,33.52-33.53,33.52s-33.52-15.01-33.52-33.52,15.01-33.53,33.52-33.53,33.53,15.01,33.53,33.53Z"/>
      <path class="cls-7" d="m248.35,315.17c-31.9,0-57.76,25.86-57.76,57.76s25.86,57.76,57.76,57.76,57.76-25.86,57.76-57.76-25.86-57.76-57.76-57.76Zm0,93.98c-20,0-36.22-16.22-36.22-36.22s16.22-36.22,36.22-36.22,36.22,16.22,36.22,36.22-16.22,36.22-36.22,36.22Z"/>
      <path class="cls-1" d="m282.27,372.49c0,18.51-15.02,33.52-33.53,33.52s-33.52-15.01-33.52-33.52,15.01-33.53,33.52-33.53,33.53,15.01,33.53,33.53Z"/>
      <path class="cls-7" d="m323.34,452.82c-31.9,0-57.76,25.86-57.76,57.76s25.86,57.76,57.76,57.76,57.76-25.86,57.76-57.76-25.86-57.76-57.76-57.76Zm0,93.98c-20,0-36.22-16.22-36.22-36.22s16.22-36.22,36.22-36.22,36.22,16.22,36.22,36.22-16.22,36.22-36.22,36.22Z"/>
      <path class="cls-1" d="m357.25,510.15c0,18.51-15.02,33.52-33.53,33.52s-33.52-15.01-33.52-33.52,15.01-33.53,33.52-33.53,33.53,15.01,33.53,33.53Z"/>
      <path class="cls-7" d="m480.22,453.4c-31.9,0-57.76,25.86-57.76,57.76s25.86,57.76,57.76,57.76,57.76-25.86,57.76-57.76-25.86-57.76-57.76-57.76Zm0,93.98c-20,0-36.22-16.22-36.22-36.22s16.22-36.22,36.22-36.22,36.22,16.22,36.22,36.22-16.22,36.22-36.22,36.22Z"/>
      <path class="cls-1" d="m514.14,510.72c0,18.51-15.02,33.52-33.53,33.52s-33.52-15.01-33.52-33.52,15.01-33.53,33.52-33.53,33.53,15.01,33.53,33.53Z"/>
      <path class="cls-7" d="m323.44,229.45c-19.93,0-36.08,16.15-36.08,36.08s16.15,36.08,36.08,36.08,36.08-16.15,36.08-36.08-16.15-36.08-36.08-36.08Zm0,58.7c-12.5,0-22.63-10.13-22.63-22.63s10.13-22.63,22.63-22.63,22.63,10.13,22.63,22.63-10.13,22.63-22.63,22.63Z"/>
      <path class="cls-1" d="m344.04,265.26c0,11.24-9.12,20.35-20.36,20.35s-20.35-9.11-20.35-20.35,9.11-20.36,20.35-20.36,20.36,9.11,20.36,20.36Z"/>
      <path class="cls-7" d="m472.15,229c-19.93,0-36.08,16.15-36.08,36.08s16.15,36.08,36.08,36.08,36.08-16.15,36.08-36.08-16.15-36.08-36.08-36.08Zm0,58.7c-12.5,0-22.63-10.13-22.63-22.63s10.13-22.63,22.63-22.63,22.63,10.13,22.63,22.63-10.13,22.63-22.63,22.63Z"/>
      <path class="cls-1" d="m492.76,264.81c0,11.24-9.12,20.35-20.36,20.35s-20.35-9.11-20.35-20.35,9.11-20.36,20.35-20.36,20.36,9.11,20.36,20.36Z"/>
      <path class="cls-3" d="m291.04,142.36c12.03-1.14,19.48,6.01,26.32,8.62,1.77.67,3.59-1.38,2.86-3.21l-4.88-10.05s23.22,7.12,24.79-9.36c2.61-27.37-46.18-14.3-46.18-14.3l-2.92,28.29Z"/>
      <path class="cls-3" d="m507.66,141.84c-12.06-.86-19.33,6.46-26.12,9.22-1.75.71-3.62-1.29-2.93-3.15l4.65-10.16s-23.05,7.65-25-8.78c-3.24-27.3,45.84-15.36,45.84-15.36l3.57,28.22Z"/>
      <path class="cls-3" d="m522.46,701.65s-54.99,24.66-56.91-2.77c-1.15-16.51,22.92-13.3,22.92-13.3l-6.46-9.11c-1.02-1.69.44-4.01,2.3-3.64,7.18,1.45,15.7,7.28,27.38,4.18l10.77,24.63Z"/>
      <path class="cls-3" d="m284.94,680.13c11.79,2.68,20.09-3.46,27.21-5.17,1.84-.44,3.38,1.83,2.42,3.56l-6.13,9.34s23.94-4.07,23.39,12.47c-.93,27.48-55.89,3.7-55.89,3.7l9-23.9Z"/>
      <path class="cls-3" d="m750.32,477.03s21.96-45.49-5.42-48.04c-16.48-1.53-13.83,22.61-13.83,22.61l-8.96-6.67c-1.67-1.06-4.02.35-3.69,2.21,1.28,7.21,6.92,15.86,3.55,27.47l28.34,2.42Z"/>
      <path class="cls-3" d="m77.75,474.7c-3.64-11.53,1.8-20.3,2.91-27.55.29-1.87-2.1-3.22-3.74-2.12l-8.8,6.88s2.09-24.2-14.35-22.28c-27.31,3.19-4.29,48.15-4.29,48.15l28.28-3.08Z"/>
      <path class="cls-3" d="m60.32,291.79c-1.79,11.95,4.95,19.77,7.18,26.75.58,1.8-1.57,3.51-3.37,2.68l-9.77-5.42s5.84,23.58-10.69,24.25c-27.47,1.12-11.77-46.89-11.77-46.89l28.41-1.38Z"/>
      <path class="cls-3" d="m766.6,293.95s15.35,53.15-12.05,50.92c-16.49-1.35-9.69-24.66-9.69-24.66l-9.98,5.01c-1.83.75-3.9-1.04-3.25-2.82,2.51-6.88,9.57-14.42,8.26-26.44l26.72-2.01Z"/>
      <path class="cls-2" d="m204.83,618.69c21.89,15.39,48.37,31.74,78.22,42.67,6.21,2.27,5.31,9.89,3.12,16.13l-8.51,24.31c-2.27,6.47-9.46,9.83-15.85,7.34-145.21-56.48-200.46-173.21-215.73-213.72-2.81-7.45,1.66-15.65,9.44-17.38l16.95-3.77c6.53-1.45,18.34-1.6,20.95,4.56,6.45,15.2,21.33,42.67,45.04,75.85"/>
      <path class="cls-2" d="m593.57,618.69c-21.69,15.25-49.78,28.44-78.22,40.3-6.55,2.73-4.88,12.63-2.53,19.33l7.92,22.62c2.43,6.95,10.15,10.55,17,7.87,143.34-56.11,198.69-170.97,214.49-212.33,3.05-7.98-1.69-16.8-10.03-18.66l-15.24-3.39c-6.95-1.54-16.8-2.14-19.6,4.4-6.58,15.39-21.33,42.67-47.41,75.85"/>
      <path class="cls-2" d="m114.08,204.01c-4.21,6.36-7.88,12.79-11.18,18.83-8.94,16.38-16.92,39.09-26.87,67.14-2.23,6.3-8.86,9.91-15.36,8.36l-24.94-5.94c-7.32-1.74-11.71-9.3-9.5-16.5,11.02-35.89,25.19-70.73,36.38-93.36,15.79-31.95,32.17-76.72,106.67-78.22,32.11-.65,68.57-.54,110.29-.13,7.17.07,12.97,5.91,12.97,13.08v26.11c0,7.23-5.86,13.09-13.09,13.08-33.33-.03-65.69-.07-87.82,1.28"/>
      <path class="cls-2" d="m685.29,204.01c4.21,6.36,7.88,12.79,11.18,18.83,8.93,16.38,16.92,39.09,26.87,67.14,2.23,6.3,8.86,9.91,15.36,8.36l24.94-5.94c7.32-1.74,11.71-9.3,9.5-16.5-11.02-35.89-25.19-70.73-36.38-93.36-15.79-31.95-32.17-76.72-106.67-78.22-32.11-.65-68.57-.54-110.29-.13-7.18.07-12.97,5.91-12.97,13.08v26.11c0,7.23,5.86,13.09,13.09,13.08,33.33-.03,65.69-.07,87.82,1.28"/>
      <g>
        <path class="cls-4" d="m141.48,215.32c-29.92,0-54.26-24.34-54.26-54.26s24.34-54.26,54.26-54.26,54.26,24.34,54.26,54.26-24.34,54.26-54.26,54.26Z"/>
        <path class="cls-5" d="m141.48,111.8c27.16,0,49.26,22.1,49.26,49.26s-22.1,49.26-49.26,49.26-49.26-22.1-49.26-49.26,22.1-49.26,49.26-49.26m0-10c-32.73,0-59.26,26.53-59.26,59.26s26.53,59.26,59.26,59.26,59.26-26.53,59.26-59.26-26.53-59.26-59.26-59.26h0Z"/>
      </g>
      <g>
        <path class="cls-4" d="m633.07,641.79c-26.79,0-48.59-21.6-48.59-48.14s21.8-48.14,48.59-48.14,48.59,21.6,48.59,48.14-21.8,48.14-48.59,48.14Z"/>
        <path class="cls-5" d="m633.07,550.51c24.04,0,43.59,19.35,43.59,43.14s-19.56,43.14-43.59,43.14-43.59-19.35-43.59-43.14,19.56-43.14,43.59-43.14m0-10c-29.6,0-53.59,23.79-53.59,53.14s24,53.14,53.59,53.14,53.59-23.79,53.59-53.14-24-53.14-53.59-53.14h0Z"/>
      </g>
      <g>
        <path class="cls-4" d="m166.38,642.19c-26.79,0-48.59-21.6-48.59-48.14s21.8-48.14,48.59-48.14,48.59,21.6,48.59,48.14-21.8,48.14-48.59,48.14Z"/>
        <path class="cls-5" d="m166.38,550.9c24.04,0,43.59,19.35,43.59,43.14s-19.56,43.14-43.59,43.14-43.59-19.35-43.59-43.14,19.56-43.14,43.59-43.14m0-10c-29.6,0-53.59,23.79-53.59,53.14s24,53.14,53.59,53.14,53.59-23.79,53.59-53.14-24-53.14-53.59-53.14h0Z"/>
      </g>
      <g>
        <circle class="cls-4" cx="658.22" cy="161.06" r="54.26"/>
        <path class="cls-5" d="m658.22,111.8c27.16,0,49.26,22.1,49.26,49.26s-22.1,49.26-49.26,49.26-49.26-22.1-49.26-49.26,22.1-49.26,49.26-49.26m0-10c-32.73,0-59.26,26.53-59.26,59.26s26.53,59.26,59.26,59.26,59.26-26.53,59.26-59.26-26.53-59.26-59.26-59.26h0Z"/>
      </g>
    </g>
  </g>
</svg>