<?xml version="1.0" encoding="UTF-8"?>
<svg id="Calque_2" data-name="Calque 2" xmlns="http://www.w3.org/2000/svg" xmlns:xlink="http://www.w3.org/1999/xlink" viewBox="0 0 630.79 470.94">
  <defs>
    <style>
      .cls-1 {
        fill: #7dc4e9;
        stroke: #cde9f8;
        stroke-width: 5px;
      }

      .cls-1, .cls-2, .cls-3 {
        stroke-miterlimit: 10;
      }

      .cls-4 {
        clip-path: url(#clippath);
      }

      .cls-2 {
        stroke: #197240;
        stroke-width: 4px;
      }

      .cls-2, .cls-3, .cls-5 {
        fill: #bfdecd;
      }

      .cls-6 {
        clip-path: url(#clippath-1);
      }

      .cls-7 {
        fill: none;
        font-family: Marion-Bold, Marion;
        font-size: 145px;
        font-weight: 700;
        letter-spacing: -.01em;
      }

      .cls-8 {
        fill: url(#Dégradé_sans_nom_105);
      }

      .cls-8, .cls-9, .cls-5, .cls-10, .cls-11 {
        stroke-width: 0px;
      }

      .cls-3 {
        stroke: #2e8b57;
        stroke-width: 6px;
      }

      .cls-9 {
        fill: #197240;
      }

      .cls-10 {
        fill: #005f9c;
      }

      .cls-11 {
        fill: url(#Dégradé_sans_nom_92);
      }
    </style>
    <clipPath id="clippath">
      <text class="cls-7" transform="translate(12.42 428.89)"><tspan x="0" y="0">Charg</tspan></text>
    </clipPath>
    <linearGradient id="Dégradé_sans_nom_105" data-name="Dégradé sans nom 105" x1="14" y1="388.86" x2="401" y2="388.86" gradientUnits="userSpaceOnUse">
      <stop offset="0" stop-color="#024876"/>
      <stop offset=".84" stop-color="#0d77bb"/>
      <stop offset="1" stop-color="#1080c9"/>
    </linearGradient>
    <clipPath id="clippath-1">
      <text class="cls-7" transform="translate(394.07 428.89)"><tspan x="0" y="0">Era</tspan></text>
    </clipPath>
    <linearGradient id="Dégradé_sans_nom_92" data-name="Dégradé sans nom 92" x1="395" y1="383.86" x2="627" y2="383.86" gradientUnits="userSpaceOnUse">
      <stop offset="0" stop-color="#197240"/>
      <stop offset=".23" stop-color="#207b48"/>
      <stop offset=".62" stop-color="#34945e"/>
      <stop offset="1" stop-color="#4db47a"/>
    </linearGradient>
  </defs>
  <g id="FINAL_LOGO_OK_BIG_LIGHT" data-name="FINAL LOGO OK BIG LIGHT">
    <g class="cls-4">
      <rect class="cls-8" x="14" y="316.86" width="387" height="144"/>
    </g>
    <g class="cls-6">
      <rect class="cls-11" x="395" y="329.86" width="232" height="108"/>
    </g>
    <g>
      <path class="cls-10" d="m390.06,92c-13.46,0-24.37,10.91-24.37,24.37s10.91,24.37,24.37,24.37,24.37-10.91,24.37-24.37-10.91-24.37-24.37-24.37Zm0,39.65c-8.44,0-15.28-6.84-15.28-15.28s6.84-15.28,15.28-15.28,15.28,6.84,15.28,15.28-6.84,15.28-15.28,15.28Z"/>
      <path class="cls-1" d="m404.37,116.18c0,7.81-6.33,14.14-14.14,14.14s-14.14-6.33-14.14-14.14,6.33-14.14,14.14-14.14,14.14,6.33,14.14,14.14Z"/>
      <path class="cls-10" d="m326.02,91.84c-13.46,0-24.37,10.91-24.37,24.37s10.91,24.37,24.37,24.37,24.37-10.91,24.37-24.37-10.91-24.37-24.37-24.37Zm0,39.65c-8.44,0-15.28-6.84-15.28-15.28s6.84-15.28,15.28-15.28,15.28,6.84,15.28,15.28-6.84,15.28-15.28,15.28Z"/>
      <path class="cls-1" d="m340.33,116.02c0,7.81-6.33,14.14-14.14,14.14s-14.14-6.33-14.14-14.14,6.33-14.14,14.14-14.14,14.14,6.33,14.14,14.14Z"/>
      <path class="cls-10" d="m261.59,92.15c-13.46,0-24.37,10.91-24.37,24.37s10.91,24.37,24.37,24.37,24.37-10.91,24.37-24.37-10.91-24.37-24.37-24.37Zm0,39.65c-8.44,0-15.28-6.84-15.28-15.28s6.84-15.28,15.28-15.28,15.28,6.84,15.28,15.28-6.84,15.28-15.28,15.28Z"/>
      <path class="cls-1" d="m275.9,116.33c0,7.81-6.33,14.14-14.14,14.14s-14.14-6.33-14.14-14.14,6.33-14.14,14.14-14.14,14.14,6.33,14.14,14.14Z"/>
      <path class="cls-10" d="m293.23,150.22c-13.46,0-24.37,10.91-24.37,24.37s10.91,24.37,24.37,24.37,24.37-10.91,24.37-24.37-10.91-24.37-24.37-24.37Zm0,39.65c-8.44,0-15.28-6.84-15.28-15.28s6.84-15.28,15.28-15.28,15.28,6.84,15.28,15.28-6.84,15.28-15.28,15.28Z"/>
      <path class="cls-1" d="m307.53,174.4c0,7.81-6.33,14.14-14.14,14.14s-14.14-6.33-14.14-14.14,6.33-14.14,14.14-14.14,14.14,6.33,14.14,14.14Z"/>
      <path class="cls-10" d="m359.41,150.46c-13.46,0-24.37,10.91-24.37,24.37s10.91,24.37,24.37,24.37,24.37-10.91,24.37-24.37-10.91-24.37-24.37-24.37Zm0,39.65c-8.44,0-15.28-6.84-15.28-15.28s6.84-15.28,15.28-15.28,15.28,6.84,15.28,15.28-6.84,15.28-15.28,15.28Z"/>
      <path class="cls-1" d="m373.72,174.65c0,7.81-6.33,14.14-14.14,14.14s-14.14-6.33-14.14-14.14,6.33-14.14,14.14-14.14,14.14,6.33,14.14,14.14Z"/>
      <path class="cls-10" d="m293.27,55.99c-8.41,0-15.22,6.81-15.22,15.22s6.81,15.22,15.22,15.22,15.22-6.81,15.22-15.22-6.81-15.22-15.22-15.22Zm0,24.77c-5.27,0-9.54-4.27-9.54-9.55s4.27-9.55,9.54-9.55,9.54,4.27,9.54,9.55-4.27,9.55-9.54,9.55Z"/>
      <path class="cls-1" d="m301.96,71.09c0,4.74-3.85,8.59-8.59,8.59s-8.59-3.84-8.59-8.59,3.84-8.59,8.59-8.59,8.59,3.84,8.59,8.59Z"/>
      <path class="cls-10" d="m356.01,55.79c-8.41,0-15.22,6.81-15.22,15.22s6.81,15.22,15.22,15.22,15.22-6.81,15.22-15.22-6.81-15.22-15.22-15.22Zm0,24.77c-5.27,0-9.54-4.27-9.54-9.55s4.27-9.55,9.54-9.55,9.54,4.27,9.54,9.55-4.27,9.55-9.54,9.55Z"/>
      <path class="cls-1" d="m364.7,70.9c0,4.74-3.85,8.59-8.59,8.59s-8.59-3.84-8.59-8.59,3.84-8.59,8.59-8.59,8.59,3.84,8.59,8.59Z"/>
      <path class="cls-2" d="m279.6,19.25c5.08-.48,8.22,2.54,11.11,3.64.75.28,1.51-.58,1.21-1.36l-2.06-4.24s9.8,3,10.46-3.95c1.1-11.55-19.48-6.03-19.48-6.03l-1.23,11.94Z"/>
      <path class="cls-2" d="m370.99,19.02c-5.09-.36-8.16,2.73-11.02,3.89-.74.3-1.53-.55-1.24-1.33l1.96-4.28s-9.73,3.23-10.55-3.71c-1.37-11.52,19.34-6.48,19.34-6.48l1.51,11.91Z"/>
      <path class="cls-2" d="m377.23,255.2s-23.2,10.4-24.01-1.17c-.49-6.96,9.67-5.61,9.67-5.61l-2.73-3.84c-.43-.71.19-1.69.97-1.54,3.03.61,6.62,3.07,11.55,1.76l4.54,10.39Z"/>
      <path class="cls-2" d="m277.03,246.11c4.97,1.13,8.47-1.46,11.48-2.18.78-.19,1.43.77,1.02,1.5l-2.59,3.94s10.1-1.72,9.87,5.26c-.39,11.59-23.58,1.56-23.58,1.56l3.8-10.08Z"/>
      <path class="cls-2" d="m473.36,160.43s9.26-19.19-2.28-20.27c-6.95-.65-5.83,9.54-5.83,9.54l-3.78-2.81c-.7-.45-1.7.15-1.56.93.54,3.04,2.92,6.69,1.5,11.59l11.96,1.02Z"/>
      <path class="cls-2" d="m189.62,159.45c-1.54-4.86.76-8.57,1.23-11.62.12-.79-.89-1.36-1.58-.9l-3.71,2.9s.88-10.21-6.05-9.4c-11.52,1.34-1.81,20.32-1.81,20.32l11.93-1.3Z"/>
      <path class="cls-2" d="m182.26,82.29c-.76,5.04,2.09,8.34,3.03,11.29.24.76-.66,1.48-1.42,1.13l-4.12-2.29s2.47,9.95-4.51,10.23c-11.59.47-4.96-19.78-4.96-19.78l11.99-.58Z"/>
      <path class="cls-2" d="m480.23,83.2s6.47,22.42-5.09,21.48c-6.96-.57-4.09-10.41-4.09-10.41l-4.21,2.12c-.77.32-1.65-.44-1.37-1.19,1.06-2.9,4.04-6.09,3.48-11.15l11.27-.85Z"/>
      <path class="cls-3" d="m243.23,220.2c9.23,6.49,20.41,13.39,33,18,2.62.96,2.24,4.17,1.32,6.81l-3.59,10.26c-.96,2.73-3.99,4.15-6.69,3.1-61.26-23.83-84.57-73.07-91.01-90.16-1.18-3.14.7-6.6,3.98-7.33l7.15-1.59c2.76-.61,7.74-.67,8.84,1.92,2.72,6.41,9,18,19,32"/>
      <path class="cls-3" d="m407.23,220.2c-9.15,6.43-21,12-33,17-2.76,1.15-2.06,5.33-1.07,8.15l3.34,9.54c1.03,2.93,4.28,4.45,7.17,3.32,60.47-23.67,83.82-72.13,90.49-89.58,1.29-3.37-.71-7.09-4.23-7.87l-6.43-1.43c-2.93-.65-7.09-.9-8.27,1.86-2.78,6.49-9,18-20,32"/>
      <path class="cls-3" d="m204.95,45.25c-1.77,2.68-3.33,5.39-4.72,7.94-3.77,6.91-7.14,16.49-11.34,28.32-.94,2.66-3.74,4.18-6.48,3.53l-10.52-2.51c-3.09-.74-4.94-3.92-4.01-6.96,4.65-15.14,10.63-29.84,15.35-39.39,6.66-13.48,13.57-32.37,45-33,13.55-.27,28.93-.23,46.53-.06,3.03.03,5.47,2.49,5.47,5.52v11.02c0,3.05-2.47,5.52-5.52,5.52-14.06-.01-27.71-.03-37.05.54"/>
      <path class="cls-3" d="m445.93,45.25c1.77,2.68,3.33,5.39,4.72,7.94,3.77,6.91,7.14,16.49,11.34,28.32.94,2.66,3.74,4.18,6.48,3.53l10.52-2.51c3.09-.74,4.94-3.92,4.01-6.96-4.65-15.14-10.63-29.84-15.35-39.39-6.66-13.48-13.57-32.37-45-33-13.55-.27-28.93-.23-46.53-.06-3.03.03-5.47,2.49-5.47,5.52v11.02c0,3.05,2.47,5.52,5.52,5.52,14.06-.01,27.71-.03,37.05.54"/>
      <g>
        <circle class="cls-5" cx="216.5" cy="27.13" r="22"/>
        <path class="cls-9" d="m216.5,8.13c10.48,0,19,8.52,19,19s-8.52,19-19,19-19-8.52-19-19,8.52-19,19-19m0-6c-13.81,0-25,11.19-25,25s11.19,25,25,25,25-11.19,25-25-11.19-25-25-25h0Z"/>
      </g>
      <g>
        <path class="cls-5" d="m423.89,229.05c-10.81,0-19.61-8.71-19.61-19.42s8.8-19.42,19.61-19.42,19.61,8.71,19.61,19.42-8.8,19.42-19.61,19.42Z"/>
        <path class="cls-9" d="m423.89,193.21c9.16,0,16.61,7.37,16.61,16.42s-7.45,16.42-16.61,16.42-16.61-7.37-16.61-16.42,7.45-16.42,16.61-16.42m0-6c-12.49,0-22.61,10.04-22.61,22.42s10.12,22.42,22.61,22.42,22.61-10.04,22.61-22.42-10.12-22.42-22.61-22.42h0Z"/>
      </g>
      <g>
        <path class="cls-5" d="m227.01,229.22c-10.81,0-19.61-8.71-19.61-19.42s8.8-19.42,19.61-19.42,19.61,8.71,19.61,19.42-8.8,19.42-19.61,19.42Z"/>
        <path class="cls-9" d="m227.01,193.38c9.16,0,16.61,7.37,16.61,16.42s-7.45,16.42-16.61,16.42-16.61-7.37-16.61-16.42,7.45-16.42,16.61-16.42m0-6c-12.49,0-22.61,10.04-22.61,22.42s10.12,22.42,22.61,22.42,22.61-10.04,22.61-22.42-10.12-22.42-22.61-22.42h0Z"/>
      </g>
      <g>
        <circle class="cls-5" cx="434.5" cy="27.13" r="22"/>
        <path class="cls-9" d="m434.5,8.13c10.48,0,19,8.52,19,19s-8.52,19-19,19-19-8.52-19-19,8.52-19,19-19m0-6c-13.81,0-25,11.19-25,25s11.19,25,25,25,25-11.19,25-25-11.19-25-25-25h0Z"/>
      </g>
    </g>
  </g>
</svg>