<?xml version="1.0" standalone="no"?>
<!DOCTYPE svg PUBLIC "-//W3C//DTD SVG 20010904//EN"
 "http://www.w3.org/TR/2001/REC-SVG-20010904/DTD/svg10.dtd">
<svg version="1.0" xmlns="http://www.w3.org/2000/svg"
 width="700.000000pt" height="700.000000pt" viewBox="0 0 700.000000 700.000000"
 preserveAspectRatio="xMidYMid meet">
<metadata>
Created by potrace 1.14, written by Peter Selinger 2001-2017
</metadata>
<g transform="translate(0.000000,700.000000) scale(0.100000,-0.100000)"
fill="#000000" stroke="none">
<path d="M5740 6326 c-37 -7 -237 -11 -605 -10 -610 2 -606 2 -662 -61 -17
-21 -36 -34 -42 -31 -15 9 -119 20 -192 19 -163 -1 -256 -84 -236 -210 12 -74
63 -113 148 -116 40 -2 48 -5 43 -17 -19 -43 7 -90 48 -90 10 0 52 18 94 40
42 22 82 40 89 40 7 0 16 -11 19 -25 10 -39 64 -94 104 -104 21 -6 193 -11
385 -12 l347 -2 0 -36 c0 -84 54 -232 110 -306 41 -53 127 -128 184 -160 144
-80 342 -97 489 -41 37 14 70 26 72 26 18 0 116 -223 211 -479 91 -244 107
-271 180 -291 24 -7 44 -15 44 -17 0 -3 -12 -28 -26 -57 -49 -95 -54 -119 -34
-146 15 -20 23 -22 57 -17 l39 7 1 -41 c4 -90 64 -149 153 -149 129 0 190 139
156 353 -3 20 -9 54 -12 75 -3 20 -8 41 -11 45 -3 5 7 21 22 37 15 15 26 30
25 32 -1 1 4 17 10 33 16 41 8 89 -39 230 -40 121 -121 344 -146 400 -7 17
-32 75 -55 130 -64 149 -194 412 -238 480 -21 33 -59 101 -86 150 -86 164
-178 244 -356 306 -66 24 -211 31 -290 15z"/>
<path d="M1300 6309 c-41 -4 -109 -10 -150 -14 -202 -17 -282 -54 -431 -204
-65 -65 -130 -142 -167 -199 -77 -117 -210 -386 -298 -602 -19 -47 -39 -94
-44 -105 -43 -95 -170 -480 -170 -516 0 -37 17 -79 42 -106 19 -21 19 -22 2
-99 -25 -113 -23 -227 6 -286 39 -84 132 -116 218 -78 46 21 69 57 79 125 5
37 9 45 22 40 33 -13 49 -13 70 1 27 20 27 42 -4 114 -24 57 -32 90 -19 77 9
-8 75 26 97 51 10 11 52 110 92 221 86 232 136 352 182 436 19 33 39 70 45 83
7 15 18 21 27 18 9 -3 43 -15 76 -27 86 -32 243 -32 335 0 119 41 248 145 296
238 10 21 22 40 25 43 10 9 39 114 46 165 3 28 10 53 15 56 5 3 169 7 364 8
195 1 367 4 382 7 47 8 79 38 127 118 9 15 19 13 93 -24 94 -45 112 -48 135
-22 19 21 21 45 7 72 -9 17 -6 18 34 18 93 0 156 61 156 150 0 113 -81 173
-232 175 -62 1 -167 -10 -192 -19 -6 -2 -22 9 -34 26 -12 16 -39 38 -60 49
-35 18 -66 19 -567 18 -291 -1 -564 -4 -605 -8z"/>
<path d="M4085 5126 c-69 -17 -110 -40 -160 -91 -60 -63 -87 -125 -93 -215 -3
-60 0 -86 18 -132 28 -75 96 -150 168 -185 50 -24 69 -28 147 -28 78 0 97 4
141 27 92 49 153 123 177 218 62 240 -157 463 -398 406z"/>
<path d="M2683 5109 c-70 -27 -146 -97 -179 -165 -39 -79 -42 -186 -10 -266
28 -69 65 -114 126 -156 60 -40 110 -55 192 -55 56 0 80 6 133 32 124 61 189
166 189 306 0 228 -236 387 -451 304z"/>
<path d="M3388 4339 c-248 -59 -422 -293 -405 -544 10 -142 60 -250 162 -351
120 -118 290 -172 455 -144 198 33 374 193 425 385 15 57 22 195 11 241 -66
298 -355 482 -648 413z"/>
<path d="M2015 4340 c-193 -40 -352 -187 -410 -380 -25 -85 -21 -220 9 -310
128 -378 606 -486 886 -199 158 162 193 405 89 611 -62 124 -202 235 -340 271
-62 16 -175 19 -234 7z"/>
<path d="M4761 4334 c-131 -35 -266 -142 -328 -260 -197 -371 88 -812 505
-781 265 19 470 224 489 489 19 255 -148 489 -393 552 -76 20 -201 20 -273 0z"/>
<path d="M311 3329 c-44 -9 -81 -38 -106 -80 -37 -64 -17 -226 45 -361 11 -23
9 -33 -9 -70 -30 -63 -26 -103 20 -214 141 -339 379 -714 618 -973 18 -20 51
-61 74 -91 52 -72 77 -95 167 -161 41 -31 82 -62 90 -71 34 -34 221 -175 315
-238 143 -95 270 -168 425 -243 288 -140 350 -154 432 -95 13 10 31 7 88 -11
219 -72 371 -62 424 28 24 41 25 121 2 156 -22 34 -72 64 -119 71 -30 5 -37
10 -31 23 16 39 15 53 -1 71 -24 26 -47 25 -133 -5 -39 -14 -78 -25 -85 -25
-19 0 -9 53 30 153 17 42 29 77 28 77 -2 0 -18 -23 -36 -50 -18 -27 -34 -50
-37 -50 -2 0 -12 10 -22 23 -10 13 -51 36 -92 52 -150 58 -435 211 -570 307
-28 19 -28 20 -11 51 25 49 42 144 38 219 -12 254 -226 459 -480 458 -82 0
-110 -5 -187 -33 l-66 -25 -60 86 c-112 163 -322 533 -322 568 0 17 -68 55
-111 62 -53 9 -56 25 -23 137 4 11 9 36 11 57 4 31 1 39 -22 54 -24 16 -29 16
-59 1 l-34 -16 -5 34 c-15 92 -93 145 -186 124z"/>
<path d="M6570 3318 c-35 -24 -70 -81 -73 -118 -1 -16 -6 -20 -22 -15 -43 14
-64 12 -80 -5 -21 -24 -22 -45 -2 -105 9 -28 18 -68 20 -90 2 -36 -1 -40 -23
-43 -14 -1 -41 -10 -61 -18 -31 -14 -44 -30 -88 -117 -54 -108 -94 -183 -126
-232 -116 -183 -231 -345 -245 -345 -4 0 -28 9 -52 20 -61 27 -108 34 -200 33
-133 -2 -245 -51 -339 -150 -59 -62 -110 -156 -127 -235 -19 -91 3 -258 39
-304 13 -16 -11 -34 -141 -106 -132 -73 -158 -86 -375 -183 -184 -83 -200 -97
-200 -181 0 -54 0 -54 -31 -54 -17 0 -57 9 -89 20 -79 27 -111 26 -131 -5 -14
-22 -14 -27 -1 -54 15 -30 15 -30 -17 -37 -53 -11 -105 -43 -121 -74 -21 -41
-19 -118 4 -156 54 -88 196 -99 416 -30 l79 25 45 -29 c59 -40 104 -39 206 2
76 31 303 138 335 158 8 5 37 21 64 36 149 79 394 249 521 359 33 28 93 75
134 104 82 59 109 85 154 151 17 25 61 79 97 120 227 255 448 602 569 890 18
41 37 84 42 94 6 11 13 45 16 75 4 45 1 65 -15 95 -20 36 -20 41 -6 69 53 100
80 283 54 352 -35 93 -153 135 -230 83z"/>
<path d="M2675 3076 c-255 -64 -423 -301 -401 -563 23 -270 254 -483 523 -483
236 0 433 141 508 364 26 79 35 189 21 265 -47 248 -271 433 -522 430 -43 0
-101 -6 -129 -13z"/>
<path d="M4110 3071 c-203 -53 -358 -218 -396 -419 -50 -268 111 -528 378
-609 83 -25 218 -22 307 7 223 71 376 291 366 523 -3 83 -9 112 -38 182 -37
90 -88 158 -163 216 -133 103 -300 140 -454 100z"/>
</g>
</svg>
